<mxfile host="Electron" modified="2024-03-26T01:28:45.661Z" agent="Mozilla/5.0 (X11; Linux x86_64) AppleWebKit/537.36 (KHTML, like Gecko) draw.io/24.1.0 Chrome/120.0.6099.109 Electron/28.1.0 Safari/537.36" etag="ADwt-6OuB3ncFm0GJGTW" version="24.1.0" type="device">
  <diagram id="C5RBs43oDa-KdzZeNtuy" name="PÃ¡gina-1">
    <mxGraphModel dx="880" dy="581" grid="1" gridSize="10" guides="1" tooltips="1" connect="1" arrows="1" fold="1" page="1" pageScale="1" pageWidth="827" pageHeight="1169" background="#000000" math="0" shadow="0">
      <root>
        <mxCell id="WIyWlLk6GJQsqaUBKTNV-0" />
        <mxCell id="WIyWlLk6GJQsqaUBKTNV-1" value="Facturas" parent="WIyWlLk6GJQsqaUBKTNV-0" />
        <mxCell id="FxQnn6r0CxtkgtO6iSX7-0" value="facturas" style="swimlane;fontStyle=0;childLayout=stackLayout;horizontal=1;startSize=30;horizontalStack=0;resizeParent=1;resizeParentMax=0;resizeLast=0;collapsible=1;marginBottom=0;whiteSpace=wrap;html=1;spacing=0;fontFamily=Helvetica;" parent="WIyWlLk6GJQsqaUBKTNV-1" vertex="1">
          <mxGeometry x="40" y="30" width="160" height="290" as="geometry">
            <mxRectangle x="40" y="30" width="80" height="30" as="alternateBounds" />
          </mxGeometry>
        </mxCell>
        <mxCell id="FxQnn6r0CxtkgtO6iSX7-1" value="f - id_cliente" style="text;strokeColor=none;fillColor=none;align=left;verticalAlign=middle;spacingLeft=4;spacingRight=4;overflow=hidden;points=[[0,0.5],[1,0.5]];portConstraint=eastwest;rotatable=0;whiteSpace=wrap;html=1;fontStyle=4;spacing=0;fontFamily=Helvetica;" parent="FxQnn6r0CxtkgtO6iSX7-0" vertex="1">
          <mxGeometry y="30" width="160" height="20" as="geometry" />
        </mxCell>
        <mxCell id="FxQnn6r0CxtkgtO6iSX7-2" value="p - id_factura" style="text;strokeColor=none;fillColor=none;align=left;verticalAlign=middle;spacingLeft=4;spacingRight=4;overflow=hidden;points=[[0,0.5],[1,0.5]];portConstraint=eastwest;rotatable=0;whiteSpace=wrap;html=1;fontStyle=4;spacing=0;fontFamily=Helvetica;" parent="FxQnn6r0CxtkgtO6iSX7-0" vertex="1">
          <mxGeometry y="50" width="160" height="20" as="geometry" />
        </mxCell>
        <mxCell id="FxQnn6r0CxtkgtO6iSX7-78" value="&lt;div&gt;&lt;span style=&quot;background-color: initial;&quot;&gt;n - id_tienda&lt;/span&gt;&lt;/div&gt;" style="text;strokeColor=none;fillColor=none;align=left;verticalAlign=middle;spacingLeft=4;spacingRight=4;overflow=hidden;points=[[0,0.5],[1,0.5]];portConstraint=eastwest;rotatable=0;whiteSpace=wrap;html=1;spacing=0;fontFamily=Helvetica;" parent="FxQnn6r0CxtkgtO6iSX7-0" vertex="1">
          <mxGeometry y="70" width="160" height="20" as="geometry" />
        </mxCell>
        <mxCell id="FxQnn6r0CxtkgtO6iSX7-5" value="nif_tienda" style="text;strokeColor=none;fillColor=none;align=left;verticalAlign=middle;spacingLeft=4;spacingRight=4;overflow=hidden;points=[[0,0.5],[1,0.5]];portConstraint=eastwest;rotatable=0;whiteSpace=wrap;html=1;spacing=0;fontFamily=Helvetica;" parent="FxQnn6r0CxtkgtO6iSX7-0" vertex="1">
          <mxGeometry y="90" width="160" height="20" as="geometry" />
        </mxCell>
        <mxCell id="FxQnn6r0CxtkgtO6iSX7-6" value="nif_cliente" style="text;strokeColor=none;fillColor=none;align=left;verticalAlign=middle;spacingLeft=4;spacingRight=4;overflow=hidden;points=[[0,0.5],[1,0.5]];portConstraint=eastwest;rotatable=0;whiteSpace=wrap;html=1;spacing=0;fontFamily=Helvetica;" parent="FxQnn6r0CxtkgtO6iSX7-0" vertex="1">
          <mxGeometry y="110" width="160" height="20" as="geometry" />
        </mxCell>
        <mxCell id="FxQnn6r0CxtkgtO6iSX7-7" value="n - numero_factura" style="text;strokeColor=none;fillColor=none;align=left;verticalAlign=middle;spacingLeft=4;spacingRight=4;overflow=hidden;points=[[0,0.5],[1,0.5]];portConstraint=eastwest;rotatable=0;whiteSpace=wrap;html=1;spacing=0;fontFamily=Helvetica;" parent="FxQnn6r0CxtkgtO6iSX7-0" vertex="1">
          <mxGeometry y="130" width="160" height="20" as="geometry" />
        </mxCell>
        <mxCell id="FxQnn6r0CxtkgtO6iSX7-8" value="fecha" style="text;strokeColor=none;fillColor=none;align=left;verticalAlign=middle;spacingLeft=4;spacingRight=4;overflow=hidden;points=[[0,0.5],[1,0.5]];portConstraint=eastwest;rotatable=0;whiteSpace=wrap;html=1;spacing=0;fontFamily=Helvetica;" parent="FxQnn6r0CxtkgtO6iSX7-0" vertex="1">
          <mxGeometry y="150" width="160" height="20" as="geometry" />
        </mxCell>
        <mxCell id="FxQnn6r0CxtkgtO6iSX7-13" value="importe_total" style="text;strokeColor=none;fillColor=none;align=left;verticalAlign=middle;spacingLeft=4;spacingRight=4;overflow=hidden;points=[[0,0.5],[1,0.5]];portConstraint=eastwest;rotatable=0;whiteSpace=wrap;html=1;spacing=0;fontFamily=Helvetica;" parent="FxQnn6r0CxtkgtO6iSX7-0" vertex="1">
          <mxGeometry y="170" width="160" height="20" as="geometry" />
        </mxCell>
        <mxCell id="FxQnn6r0CxtkgtO6iSX7-14" value="n - idioma_preferido" style="text;strokeColor=none;fillColor=none;align=left;verticalAlign=middle;spacingLeft=4;spacingRight=4;overflow=hidden;points=[[0,0.5],[1,0.5]];portConstraint=eastwest;rotatable=0;whiteSpace=wrap;html=1;spacing=0;fontFamily=Helvetica;" parent="FxQnn6r0CxtkgtO6iSX7-0" vertex="1">
          <mxGeometry y="190" width="160" height="20" as="geometry" />
        </mxCell>
        <mxCell id="t8jn_Qx6A78TWqLIUDg7-0" value="&lt;div&gt;&lt;span style=&quot;background-color: initial;&quot;&gt;tipo_operacion&lt;/span&gt;&lt;br&gt;&lt;/div&gt;" style="text;strokeColor=none;fillColor=none;align=left;verticalAlign=middle;spacingLeft=4;spacingRight=4;overflow=hidden;points=[[0,0.5],[1,0.5]];portConstraint=eastwest;rotatable=0;whiteSpace=wrap;html=1;spacing=0;fontFamily=Helvetica;" vertex="1" parent="FxQnn6r0CxtkgtO6iSX7-0">
          <mxGeometry y="210" width="160" height="20" as="geometry" />
        </mxCell>
        <mxCell id="FxQnn6r0CxtkgtO6iSX7-15" value="proforma" style="text;strokeColor=none;fillColor=none;align=left;verticalAlign=middle;spacingLeft=4;spacingRight=4;overflow=hidden;points=[[0,0.5],[1,0.5]];portConstraint=eastwest;rotatable=0;whiteSpace=wrap;html=1;spacing=0;fontFamily=Helvetica;" parent="FxQnn6r0CxtkgtO6iSX7-0" vertex="1">
          <mxGeometry y="230" width="160" height="20" as="geometry" />
        </mxCell>
        <mxCell id="FxQnn6r0CxtkgtO6iSX7-16" value="pagado" style="text;strokeColor=none;fillColor=none;align=left;verticalAlign=middle;spacingLeft=4;spacingRight=4;overflow=hidden;points=[[0,0.5],[1,0.5]];portConstraint=eastwest;rotatable=0;whiteSpace=wrap;html=1;spacing=0;fontFamily=Helvetica;" parent="FxQnn6r0CxtkgtO6iSX7-0" vertex="1">
          <mxGeometry y="250" width="160" height="20" as="geometry" />
        </mxCell>
        <mxCell id="FxQnn6r0CxtkgtO6iSX7-17" value="n - caducidad_factura" style="text;strokeColor=none;fillColor=none;align=left;verticalAlign=middle;spacingLeft=4;spacingRight=4;overflow=hidden;points=[[0,0.5],[1,0.5]];portConstraint=eastwest;rotatable=0;whiteSpace=wrap;html=1;spacing=0;fontFamily=Helvetica;" parent="FxQnn6r0CxtkgtO6iSX7-0" vertex="1">
          <mxGeometry y="270" width="160" height="20" as="geometry" />
        </mxCell>
        <mxCell id="FxQnn6r0CxtkgtO6iSX7-10" value="Julio" style="shape=umlActor;verticalLabelPosition=bottom;verticalAlign=top;html=1;outlineConnect=0;" parent="WIyWlLk6GJQsqaUBKTNV-1" vertex="1">
          <mxGeometry x="414" y="750" width="20" height="40" as="geometry" />
        </mxCell>
        <mxCell id="FxQnn6r0CxtkgtO6iSX7-19" value="clientes" style="swimlane;fontStyle=0;childLayout=stackLayout;horizontal=1;startSize=30;horizontalStack=0;resizeParent=1;resizeParentMax=0;resizeLast=0;collapsible=1;marginBottom=0;html=1;whiteSpace=wrap;fontFamily=Helvetica;swimlaneLine=1;spacing=0;" parent="WIyWlLk6GJQsqaUBKTNV-1" vertex="1">
          <mxGeometry x="40" y="320" width="140" height="260" as="geometry">
            <mxRectangle x="120" y="320" width="80" height="30" as="alternateBounds" />
          </mxGeometry>
        </mxCell>
        <mxCell id="FxQnn6r0CxtkgtO6iSX7-20" value="p - id_cliente" style="text;strokeColor=none;fillColor=none;align=left;verticalAlign=middle;spacingLeft=4;spacingRight=4;overflow=hidden;points=[[0,0.5],[1,0.5]];portConstraint=eastwest;rotatable=0;whiteSpace=wrap;html=1;fontStyle=4;spacing=0;fontFamily=Helvetica;" parent="FxQnn6r0CxtkgtO6iSX7-19" vertex="1">
          <mxGeometry y="30" width="140" height="20" as="geometry" />
        </mxCell>
        <mxCell id="FxQnn6r0CxtkgtO6iSX7-21" value="nombre" style="text;strokeColor=none;fillColor=none;align=left;verticalAlign=middle;spacingLeft=4;spacingRight=4;overflow=hidden;points=[[0,0.5],[1,0.5]];portConstraint=eastwest;rotatable=0;whiteSpace=wrap;html=1;spacing=0;fontFamily=Helvetica;" parent="FxQnn6r0CxtkgtO6iSX7-19" vertex="1">
          <mxGeometry y="50" width="140" height="20" as="geometry" />
        </mxCell>
        <mxCell id="FxQnn6r0CxtkgtO6iSX7-29" value="apellido" style="text;strokeColor=none;fillColor=none;align=left;verticalAlign=middle;spacingLeft=4;spacingRight=4;overflow=hidden;points=[[0,0.5],[1,0.5]];portConstraint=eastwest;rotatable=0;whiteSpace=wrap;html=1;spacing=0;fontFamily=Helvetica;" parent="FxQnn6r0CxtkgtO6iSX7-19" vertex="1">
          <mxGeometry y="70" width="140" height="20" as="geometry" />
        </mxCell>
        <mxCell id="FxQnn6r0CxtkgtO6iSX7-27" value="nif" style="text;strokeColor=none;fillColor=none;align=left;verticalAlign=middle;spacingLeft=4;spacingRight=4;overflow=hidden;points=[[0,0.5],[1,0.5]];portConstraint=eastwest;rotatable=0;whiteSpace=wrap;html=1;spacing=0;fontFamily=Helvetica;" parent="FxQnn6r0CxtkgtO6iSX7-19" vertex="1">
          <mxGeometry y="90" width="140" height="20" as="geometry" />
        </mxCell>
        <mxCell id="FxQnn6r0CxtkgtO6iSX7-22" value="linea_direccion_1" style="text;strokeColor=none;fillColor=none;align=left;verticalAlign=middle;spacingLeft=4;spacingRight=4;overflow=hidden;points=[[0,0.5],[1,0.5]];portConstraint=eastwest;rotatable=0;whiteSpace=wrap;html=1;spacing=0;fontFamily=Helvetica;" parent="FxQnn6r0CxtkgtO6iSX7-19" vertex="1">
          <mxGeometry y="110" width="140" height="20" as="geometry" />
        </mxCell>
        <mxCell id="FxQnn6r0CxtkgtO6iSX7-23" value="n - linea_direccion_2" style="text;strokeColor=none;fillColor=none;align=left;verticalAlign=middle;spacingLeft=4;spacingRight=4;overflow=hidden;points=[[0,0.5],[1,0.5]];portConstraint=eastwest;rotatable=0;whiteSpace=wrap;html=1;spacing=0;fontFamily=Helvetica;" parent="FxQnn6r0CxtkgtO6iSX7-19" vertex="1">
          <mxGeometry y="130" width="140" height="20" as="geometry" />
        </mxCell>
        <mxCell id="FxQnn6r0CxtkgtO6iSX7-24" value="codigo_postal" style="text;strokeColor=none;fillColor=none;align=left;verticalAlign=middle;spacingLeft=4;spacingRight=4;overflow=hidden;points=[[0,0.5],[1,0.5]];portConstraint=eastwest;rotatable=0;whiteSpace=wrap;html=1;spacing=0;fontFamily=Helvetica;" parent="FxQnn6r0CxtkgtO6iSX7-19" vertex="1">
          <mxGeometry y="150" width="140" height="20" as="geometry" />
        </mxCell>
        <mxCell id="FxQnn6r0CxtkgtO6iSX7-25" value="telefono" style="text;strokeColor=none;fillColor=none;align=left;verticalAlign=middle;spacingLeft=4;spacingRight=4;overflow=hidden;points=[[0,0.5],[1,0.5]];portConstraint=eastwest;rotatable=0;whiteSpace=wrap;html=1;spacing=0;fontFamily=Helvetica;" parent="FxQnn6r0CxtkgtO6iSX7-19" vertex="1">
          <mxGeometry y="170" width="140" height="20" as="geometry" />
        </mxCell>
        <mxCell id="FxQnn6r0CxtkgtO6iSX7-26" value="email" style="text;strokeColor=none;fillColor=none;align=left;verticalAlign=middle;spacingLeft=4;spacingRight=4;overflow=hidden;points=[[0,0.5],[1,0.5]];portConstraint=eastwest;rotatable=0;whiteSpace=wrap;html=1;spacing=0;fontFamily=Helvetica;" parent="FxQnn6r0CxtkgtO6iSX7-19" vertex="1">
          <mxGeometry y="190" width="140" height="20" as="geometry" />
        </mxCell>
        <mxCell id="FxQnn6r0CxtkgtO6iSX7-28" value="n - idioma_preferido" style="text;strokeColor=none;fillColor=none;align=left;verticalAlign=middle;spacingLeft=4;spacingRight=4;overflow=hidden;points=[[0,0.5],[1,0.5]];portConstraint=eastwest;rotatable=0;whiteSpace=wrap;html=1;spacing=0;fontFamily=Helvetica;" parent="FxQnn6r0CxtkgtO6iSX7-19" vertex="1">
          <mxGeometry y="210" width="140" height="20" as="geometry" />
        </mxCell>
        <mxCell id="FxQnn6r0CxtkgtO6iSX7-40" value="subtabla:&lt;div&gt;alternativas_clientes&lt;/div&gt;" style="swimlane;fontStyle=0;childLayout=stackLayout;horizontal=1;startSize=40;horizontalStack=0;resizeParent=1;resizeParentMax=0;resizeLast=0;collapsible=1;marginBottom=0;whiteSpace=wrap;html=1;spacing=0;fontFamily=Helvetica;" parent="FxQnn6r0CxtkgtO6iSX7-19" vertex="1" collapsed="1">
          <mxGeometry y="230" width="140" height="30" as="geometry">
            <mxRectangle y="230" width="140" height="200" as="alternateBounds" />
          </mxGeometry>
        </mxCell>
        <mxCell id="FxQnn6r0CxtkgtO6iSX7-45" value="f - id_cliente" style="text;strokeColor=none;fillColor=none;align=left;verticalAlign=middle;spacingLeft=4;spacingRight=4;overflow=hidden;points=[[0,0.5],[1,0.5]];portConstraint=eastwest;rotatable=0;whiteSpace=wrap;html=1;fontStyle=4;spacing=0;fontFamily=Helvetica;" parent="FxQnn6r0CxtkgtO6iSX7-40" vertex="1">
          <mxGeometry y="40" width="140" height="20" as="geometry" />
        </mxCell>
        <mxCell id="FxQnn6r0CxtkgtO6iSX7-46" value="p - id" style="text;strokeColor=none;fillColor=none;align=left;verticalAlign=middle;spacingLeft=4;spacingRight=4;overflow=hidden;points=[[0,0.5],[1,0.5]];portConstraint=eastwest;rotatable=0;whiteSpace=wrap;html=1;fontStyle=4;spacing=0;fontFamily=Helvetica;" parent="FxQnn6r0CxtkgtO6iSX7-40" vertex="1">
          <mxGeometry y="60" width="140" height="20" as="geometry" />
        </mxCell>
        <mxCell id="FxQnn6r0CxtkgtO6iSX7-33" value="n - linea_direccion_1" style="text;strokeColor=none;fillColor=none;align=left;verticalAlign=middle;spacingLeft=4;spacingRight=4;overflow=hidden;points=[[0,0.5],[1,0.5]];portConstraint=eastwest;rotatable=0;whiteSpace=wrap;html=1;spacing=0;fontFamily=Helvetica;" parent="FxQnn6r0CxtkgtO6iSX7-40" vertex="1">
          <mxGeometry y="80" width="140" height="20" as="geometry" />
        </mxCell>
        <mxCell id="FxQnn6r0CxtkgtO6iSX7-34" value="n - linea_direccion_2" style="text;strokeColor=none;fillColor=none;align=left;verticalAlign=middle;spacingLeft=4;spacingRight=4;overflow=hidden;points=[[0,0.5],[1,0.5]];portConstraint=eastwest;rotatable=0;whiteSpace=wrap;html=1;spacing=0;fontFamily=Helvetica;" parent="FxQnn6r0CxtkgtO6iSX7-40" vertex="1">
          <mxGeometry y="100" width="140" height="20" as="geometry" />
        </mxCell>
        <mxCell id="FxQnn6r0CxtkgtO6iSX7-37" value="n - email" style="text;strokeColor=none;fillColor=none;align=left;verticalAlign=middle;spacingLeft=4;spacingRight=4;overflow=hidden;points=[[0,0.5],[1,0.5]];portConstraint=eastwest;rotatable=0;whiteSpace=wrap;html=1;spacing=0;fontFamily=Helvetica;" parent="FxQnn6r0CxtkgtO6iSX7-40" vertex="1">
          <mxGeometry y="120" width="140" height="20" as="geometry" />
        </mxCell>
        <mxCell id="FxQnn6r0CxtkgtO6iSX7-36" value="n - telefono" style="text;strokeColor=none;fillColor=none;align=left;verticalAlign=middle;spacingLeft=4;spacingRight=4;overflow=hidden;points=[[0,0.5],[1,0.5]];portConstraint=eastwest;rotatable=0;whiteSpace=wrap;html=1;spacing=0;fontFamily=Helvetica;" parent="FxQnn6r0CxtkgtO6iSX7-40" vertex="1">
          <mxGeometry y="140" width="140" height="20" as="geometry" />
        </mxCell>
        <mxCell id="FxQnn6r0CxtkgtO6iSX7-35" value="n - codigo_postal" style="text;strokeColor=none;fillColor=none;align=left;verticalAlign=middle;spacingLeft=4;spacingRight=4;overflow=hidden;points=[[0,0.5],[1,0.5]];portConstraint=eastwest;rotatable=0;whiteSpace=wrap;html=1;spacing=0;fontFamily=Helvetica;" parent="FxQnn6r0CxtkgtO6iSX7-40" vertex="1">
          <mxGeometry y="160" width="140" height="20" as="geometry" />
        </mxCell>
        <mxCell id="FxQnn6r0CxtkgtO6iSX7-47" value="n - notas" style="text;strokeColor=none;fillColor=none;align=left;verticalAlign=middle;spacingLeft=4;spacingRight=4;overflow=hidden;points=[[0,0.5],[1,0.5]];portConstraint=eastwest;rotatable=0;whiteSpace=wrap;html=1;spacing=0;fontFamily=Helvetica;" parent="FxQnn6r0CxtkgtO6iSX7-40" vertex="1">
          <mxGeometry y="180" width="140" height="20" as="geometry" />
        </mxCell>
        <mxCell id="FxQnn6r0CxtkgtO6iSX7-54" style="edgeStyle=orthogonalEdgeStyle;rounded=0;orthogonalLoop=1;jettySize=auto;html=1;exitX=0;exitY=0.5;exitDx=0;exitDy=0;entryX=0;entryY=0.5;entryDx=0;entryDy=0;spacing=0;fontFamily=Helvetica;" parent="WIyWlLk6GJQsqaUBKTNV-1" source="FxQnn6r0CxtkgtO6iSX7-20" target="FxQnn6r0CxtkgtO6iSX7-1" edge="1">
          <mxGeometry relative="1" as="geometry">
            <mxPoint x="140" y="320" as="targetPoint" />
          </mxGeometry>
        </mxCell>
        <mxCell id="FxQnn6r0CxtkgtO6iSX7-61" value="1" style="edgeLabel;html=1;align=center;verticalAlign=middle;resizable=0;points=[];spacing=0;fontFamily=Helvetica;" parent="FxQnn6r0CxtkgtO6iSX7-54" vertex="1" connectable="0">
          <mxGeometry x="-0.8723" y="1" relative="1" as="geometry">
            <mxPoint x="1" as="offset" />
          </mxGeometry>
        </mxCell>
        <mxCell id="FxQnn6r0CxtkgtO6iSX7-62" value="n" style="edgeLabel;html=1;align=center;verticalAlign=middle;resizable=0;points=[];spacing=0;fontFamily=Helvetica;" parent="FxQnn6r0CxtkgtO6iSX7-54" vertex="1" connectable="0">
          <mxGeometry x="0.8777" y="1" relative="1" as="geometry">
            <mxPoint x="1" as="offset" />
          </mxGeometry>
        </mxCell>
        <mxCell id="FxQnn6r0CxtkgtO6iSX7-56" value="linea_factura" style="swimlane;fontStyle=0;childLayout=stackLayout;horizontal=1;startSize=30;horizontalStack=0;resizeParent=1;resizeParentMax=0;resizeLast=0;collapsible=1;marginBottom=0;whiteSpace=wrap;html=1;spacing=0;fontFamily=Helvetica;" parent="WIyWlLk6GJQsqaUBKTNV-1" vertex="1">
          <mxGeometry x="249.94" y="10" width="110" height="170" as="geometry">
            <mxRectangle x="249.94" y="10" width="110" height="30" as="alternateBounds" />
          </mxGeometry>
        </mxCell>
        <mxCell id="FxQnn6r0CxtkgtO6iSX7-57" value="f - id_facturas" style="text;strokeColor=none;fillColor=none;align=left;verticalAlign=middle;spacingLeft=4;spacingRight=4;overflow=hidden;points=[[0,0.5],[1,0.5]];portConstraint=eastwest;rotatable=0;whiteSpace=wrap;html=1;spacing=0;fontFamily=Helvetica;" parent="FxQnn6r0CxtkgtO6iSX7-56" vertex="1">
          <mxGeometry y="30" width="110" height="20" as="geometry" />
        </mxCell>
        <mxCell id="FxQnn6r0CxtkgtO6iSX7-58" value="p - n_linea" style="text;strokeColor=none;fillColor=none;align=left;verticalAlign=middle;spacingLeft=4;spacingRight=4;overflow=hidden;points=[[0,0.5],[1,0.5]];portConstraint=eastwest;rotatable=0;whiteSpace=wrap;html=1;spacing=0;fontFamily=Helvetica;" parent="FxQnn6r0CxtkgtO6iSX7-56" vertex="1">
          <mxGeometry y="50" width="110" height="20" as="geometry" />
        </mxCell>
        <mxCell id="FxQnn6r0CxtkgtO6iSX7-59" value="id_articulo" style="text;strokeColor=none;fillColor=none;align=left;verticalAlign=middle;spacingLeft=4;spacingRight=4;overflow=hidden;points=[[0,0.5],[1,0.5]];portConstraint=eastwest;rotatable=0;whiteSpace=wrap;html=1;spacing=0;fontFamily=Helvetica;" parent="FxQnn6r0CxtkgtO6iSX7-56" vertex="1">
          <mxGeometry y="70" width="110" height="20" as="geometry" />
        </mxCell>
        <mxCell id="FxQnn6r0CxtkgtO6iSX7-60" value="unidades" style="text;strokeColor=none;fillColor=none;align=left;verticalAlign=middle;spacingLeft=4;spacingRight=4;overflow=hidden;points=[[0,0.5],[1,0.5]];portConstraint=eastwest;rotatable=0;whiteSpace=wrap;html=1;spacing=0;fontFamily=Helvetica;" parent="FxQnn6r0CxtkgtO6iSX7-56" vertex="1">
          <mxGeometry y="90" width="110" height="20" as="geometry" />
        </mxCell>
        <mxCell id="FxQnn6r0CxtkgtO6iSX7-63" value="precio_base" style="text;strokeColor=none;fillColor=none;align=left;verticalAlign=middle;spacingLeft=4;spacingRight=4;overflow=hidden;points=[[0,0.5],[1,0.5]];portConstraint=eastwest;rotatable=0;whiteSpace=wrap;html=1;spacing=0;fontFamily=Helvetica;" parent="FxQnn6r0CxtkgtO6iSX7-56" vertex="1">
          <mxGeometry y="110" width="110" height="20" as="geometry" />
        </mxCell>
        <mxCell id="FxQnn6r0CxtkgtO6iSX7-64" value="id_iva" style="text;strokeColor=none;fillColor=none;align=left;verticalAlign=middle;spacingLeft=4;spacingRight=4;overflow=hidden;points=[[0,0.5],[1,0.5]];portConstraint=eastwest;rotatable=0;whiteSpace=wrap;html=1;spacing=0;fontFamily=Helvetica;" parent="FxQnn6r0CxtkgtO6iSX7-56" vertex="1">
          <mxGeometry y="130" width="110" height="20" as="geometry" />
        </mxCell>
        <mxCell id="FxQnn6r0CxtkgtO6iSX7-65" value="importe_final" style="text;strokeColor=none;fillColor=none;align=left;verticalAlign=middle;spacingLeft=4;spacingRight=4;overflow=hidden;points=[[0,0.5],[1,0.5]];portConstraint=eastwest;rotatable=0;whiteSpace=wrap;html=1;spacing=0;fontFamily=Helvetica;" parent="FxQnn6r0CxtkgtO6iSX7-56" vertex="1">
          <mxGeometry y="150" width="110" height="20" as="geometry" />
        </mxCell>
        <mxCell id="FxQnn6r0CxtkgtO6iSX7-68" style="edgeStyle=orthogonalEdgeStyle;rounded=0;orthogonalLoop=1;jettySize=auto;html=1;exitX=1;exitY=0.5;exitDx=0;exitDy=0;spacing=0;fontFamily=Helvetica;" parent="WIyWlLk6GJQsqaUBKTNV-1" source="FxQnn6r0CxtkgtO6iSX7-2" target="FxQnn6r0CxtkgtO6iSX7-57" edge="1">
          <mxGeometry relative="1" as="geometry" />
        </mxCell>
        <mxCell id="FxQnn6r0CxtkgtO6iSX7-69" value="1" style="edgeLabel;html=1;align=center;verticalAlign=middle;resizable=0;points=[];spacing=0;fontFamily=Helvetica;" parent="FxQnn6r0CxtkgtO6iSX7-68" vertex="1" connectable="0">
          <mxGeometry x="-0.4538" y="-1" relative="1" as="geometry">
            <mxPoint as="offset" />
          </mxGeometry>
        </mxCell>
        <mxCell id="FxQnn6r0CxtkgtO6iSX7-70" value="n" style="edgeLabel;html=1;align=center;verticalAlign=middle;resizable=0;points=[];spacing=0;fontFamily=Helvetica;" parent="FxQnn6r0CxtkgtO6iSX7-68" vertex="1" connectable="0">
          <mxGeometry x="0.5654" relative="1" as="geometry">
            <mxPoint as="offset" />
          </mxGeometry>
        </mxCell>
        <mxCell id="FxQnn6r0CxtkgtO6iSX7-72" value="ivas" style="swimlane;fontStyle=0;childLayout=stackLayout;horizontal=1;startSize=30;horizontalStack=0;resizeParent=1;resizeParentMax=0;resizeLast=0;collapsible=1;marginBottom=0;whiteSpace=wrap;html=1;spacing=0;fontFamily=Helvetica;" parent="WIyWlLk6GJQsqaUBKTNV-1" vertex="1">
          <mxGeometry x="249.94" y="190" width="110" height="110" as="geometry">
            <mxRectangle x="249.94" y="190" width="60" height="30" as="alternateBounds" />
          </mxGeometry>
        </mxCell>
        <mxCell id="FxQnn6r0CxtkgtO6iSX7-73" value="p - id" style="text;strokeColor=none;fillColor=none;align=left;verticalAlign=middle;spacingLeft=4;spacingRight=4;overflow=hidden;points=[[0,0.5],[1,0.5]];portConstraint=eastwest;rotatable=0;whiteSpace=wrap;html=1;spacing=0;fontFamily=Helvetica;" parent="FxQnn6r0CxtkgtO6iSX7-72" vertex="1">
          <mxGeometry y="30" width="110" height="20" as="geometry" />
        </mxCell>
        <mxCell id="FxQnn6r0CxtkgtO6iSX7-74" value="porcentaje" style="text;strokeColor=none;fillColor=none;align=left;verticalAlign=middle;spacingLeft=4;spacingRight=4;overflow=hidden;points=[[0,0.5],[1,0.5]];portConstraint=eastwest;rotatable=0;whiteSpace=wrap;html=1;spacing=0;fontFamily=Helvetica;" parent="FxQnn6r0CxtkgtO6iSX7-72" vertex="1">
          <mxGeometry y="50" width="110" height="20" as="geometry" />
        </mxCell>
        <mxCell id="FxQnn6r0CxtkgtO6iSX7-75" value="n - fecha_inicio" style="text;strokeColor=none;fillColor=none;align=left;verticalAlign=middle;spacingLeft=4;spacingRight=4;overflow=hidden;points=[[0,0.5],[1,0.5]];portConstraint=eastwest;rotatable=0;whiteSpace=wrap;html=1;spacing=0;fontFamily=Helvetica;" parent="FxQnn6r0CxtkgtO6iSX7-72" vertex="1">
          <mxGeometry y="70" width="110" height="20" as="geometry" />
        </mxCell>
        <mxCell id="FxQnn6r0CxtkgtO6iSX7-76" value="n - fecha_fin" style="text;strokeColor=none;fillColor=none;align=left;verticalAlign=middle;spacingLeft=4;spacingRight=4;overflow=hidden;points=[[0,0.5],[1,0.5]];portConstraint=eastwest;rotatable=0;whiteSpace=wrap;html=1;spacing=0;fontFamily=Helvetica;" parent="FxQnn6r0CxtkgtO6iSX7-72" vertex="1">
          <mxGeometry y="90" width="110" height="20" as="geometry" />
        </mxCell>
        <mxCell id="FxQnn6r0CxtkgtO6iSX7-81" style="edgeStyle=orthogonalEdgeStyle;rounded=0;orthogonalLoop=1;jettySize=auto;html=1;exitX=0;exitY=0.5;exitDx=0;exitDy=0;entryX=0;entryY=0.5;entryDx=0;entryDy=0;" parent="WIyWlLk6GJQsqaUBKTNV-1" source="FxQnn6r0CxtkgtO6iSX7-73" target="FxQnn6r0CxtkgtO6iSX7-64" edge="1">
          <mxGeometry relative="1" as="geometry" />
        </mxCell>
        <mxCell id="FxQnn6r0CxtkgtO6iSX7-82" value="1" style="edgeLabel;html=1;align=center;verticalAlign=middle;resizable=0;points=[];" parent="FxQnn6r0CxtkgtO6iSX7-81" vertex="1" connectable="0">
          <mxGeometry x="-0.8611" relative="1" as="geometry">
            <mxPoint as="offset" />
          </mxGeometry>
        </mxCell>
        <mxCell id="FxQnn6r0CxtkgtO6iSX7-83" value="n" style="edgeLabel;html=1;align=center;verticalAlign=middle;resizable=0;points=[];" parent="FxQnn6r0CxtkgtO6iSX7-81" vertex="1" connectable="0">
          <mxGeometry x="0.8685" y="-1" relative="1" as="geometry">
            <mxPoint as="offset" />
          </mxGeometry>
        </mxCell>
        <mxCell id="FxQnn6r0CxtkgtO6iSX7-84" value="vehiculos" style="swimlane;fontStyle=0;childLayout=stackLayout;horizontal=1;startSize=30;horizontalStack=0;resizeParent=1;resizeParentMax=0;resizeLast=0;collapsible=1;marginBottom=0;whiteSpace=wrap;html=1;" parent="WIyWlLk6GJQsqaUBKTNV-1" vertex="1">
          <mxGeometry x="640" y="160" width="140" height="230" as="geometry" />
        </mxCell>
        <mxCell id="FxQnn6r0CxtkgtO6iSX7-85" value="p - id" style="text;strokeColor=none;fillColor=none;align=left;verticalAlign=middle;spacingLeft=4;spacingRight=4;overflow=hidden;points=[[0,0.5],[1,0.5]];portConstraint=eastwest;rotatable=0;whiteSpace=wrap;html=1;" parent="FxQnn6r0CxtkgtO6iSX7-84" vertex="1">
          <mxGeometry y="30" width="140" height="20" as="geometry" />
        </mxCell>
        <mxCell id="FxQnn6r0CxtkgtO6iSX7-86" value="f - id_marca" style="text;strokeColor=none;fillColor=none;align=left;verticalAlign=middle;spacingLeft=4;spacingRight=4;overflow=hidden;points=[[0,0.5],[1,0.5]];portConstraint=eastwest;rotatable=0;whiteSpace=wrap;html=1;" parent="FxQnn6r0CxtkgtO6iSX7-84" vertex="1">
          <mxGeometry y="50" width="140" height="20" as="geometry" />
        </mxCell>
        <mxCell id="FxQnn6r0CxtkgtO6iSX7-87" value="f - id_modelo" style="text;strokeColor=none;fillColor=none;align=left;verticalAlign=middle;spacingLeft=4;spacingRight=4;overflow=hidden;points=[[0,0.5],[1,0.5]];portConstraint=eastwest;rotatable=0;whiteSpace=wrap;html=1;" parent="FxQnn6r0CxtkgtO6iSX7-84" vertex="1">
          <mxGeometry y="70" width="140" height="20" as="geometry" />
        </mxCell>
        <mxCell id="FxQnn6r0CxtkgtO6iSX7-88" value="n - matricula" style="text;strokeColor=none;fillColor=none;align=left;verticalAlign=middle;spacingLeft=4;spacingRight=4;overflow=hidden;points=[[0,0.5],[1,0.5]];portConstraint=eastwest;rotatable=0;whiteSpace=wrap;html=1;" parent="FxQnn6r0CxtkgtO6iSX7-84" vertex="1">
          <mxGeometry y="90" width="140" height="20" as="geometry" />
        </mxCell>
        <mxCell id="FxQnn6r0CxtkgtO6iSX7-89" value="n - fecha_matriculacion" style="text;strokeColor=none;fillColor=none;align=left;verticalAlign=middle;spacingLeft=4;spacingRight=4;overflow=hidden;points=[[0,0.5],[1,0.5]];portConstraint=eastwest;rotatable=0;whiteSpace=wrap;html=1;" parent="FxQnn6r0CxtkgtO6iSX7-84" vertex="1">
          <mxGeometry y="110" width="140" height="20" as="geometry" />
        </mxCell>
        <mxCell id="FxQnn6r0CxtkgtO6iSX7-90" value="fecha_registro" style="text;strokeColor=none;fillColor=none;align=left;verticalAlign=middle;spacingLeft=4;spacingRight=4;overflow=hidden;points=[[0,0.5],[1,0.5]];portConstraint=eastwest;rotatable=0;whiteSpace=wrap;html=1;" parent="FxQnn6r0CxtkgtO6iSX7-84" vertex="1">
          <mxGeometry y="130" width="140" height="20" as="geometry" />
        </mxCell>
        <mxCell id="FxQnn6r0CxtkgtO6iSX7-91" value="estado" style="text;strokeColor=none;fillColor=none;align=left;verticalAlign=middle;spacingLeft=4;spacingRight=4;overflow=hidden;points=[[0,0.5],[1,0.5]];portConstraint=eastwest;rotatable=0;whiteSpace=wrap;html=1;" parent="FxQnn6r0CxtkgtO6iSX7-84" vertex="1">
          <mxGeometry y="150" width="140" height="20" as="geometry" />
        </mxCell>
        <mxCell id="FxQnn6r0CxtkgtO6iSX7-92" value="segunda_mano" style="text;strokeColor=none;fillColor=none;align=left;verticalAlign=middle;spacingLeft=4;spacingRight=4;overflow=hidden;points=[[0,0.5],[1,0.5]];portConstraint=eastwest;rotatable=0;whiteSpace=wrap;html=1;" parent="FxQnn6r0CxtkgtO6iSX7-84" vertex="1">
          <mxGeometry y="170" width="140" height="20" as="geometry" />
        </mxCell>
        <mxCell id="FxQnn6r0CxtkgtO6iSX7-93" value="precio_base" style="text;strokeColor=none;fillColor=none;align=left;verticalAlign=middle;spacingLeft=4;spacingRight=4;overflow=hidden;points=[[0,0.5],[1,0.5]];portConstraint=eastwest;rotatable=0;whiteSpace=wrap;html=1;" parent="FxQnn6r0CxtkgtO6iSX7-84" vertex="1">
          <mxGeometry y="190" width="140" height="20" as="geometry" />
        </mxCell>
        <mxCell id="FxQnn6r0CxtkgtO6iSX7-94" value="fn - id_modelo" style="text;strokeColor=none;fillColor=none;align=left;verticalAlign=middle;spacingLeft=4;spacingRight=4;overflow=hidden;points=[[0,0.5],[1,0.5]];portConstraint=eastwest;rotatable=0;whiteSpace=wrap;html=1;" parent="FxQnn6r0CxtkgtO6iSX7-84" vertex="1">
          <mxGeometry y="210" width="140" height="20" as="geometry" />
        </mxCell>
        <mxCell id="t8jn_Qx6A78TWqLIUDg7-1" value="articulos" style="swimlane;fontStyle=0;childLayout=stackLayout;horizontal=1;startSize=30;horizontalStack=0;resizeParent=1;resizeParentMax=0;resizeLast=0;collapsible=1;marginBottom=0;whiteSpace=wrap;html=1;spacing=0;fontFamily=Helvetica;" vertex="1" parent="WIyWlLk6GJQsqaUBKTNV-1">
          <mxGeometry x="420" y="120" width="110" height="130" as="geometry">
            <mxRectangle x="249.94" y="190" width="60" height="30" as="alternateBounds" />
          </mxGeometry>
        </mxCell>
        <mxCell id="t8jn_Qx6A78TWqLIUDg7-2" value="p - id" style="text;strokeColor=none;fillColor=none;align=left;verticalAlign=middle;spacingLeft=4;spacingRight=4;overflow=hidden;points=[[0,0.5],[1,0.5]];portConstraint=eastwest;rotatable=0;whiteSpace=wrap;html=1;spacing=0;fontFamily=Helvetica;" vertex="1" parent="t8jn_Qx6A78TWqLIUDg7-1">
          <mxGeometry y="30" width="110" height="20" as="geometry" />
        </mxCell>
        <mxCell id="t8jn_Qx6A78TWqLIUDg7-3" value="precio_base" style="text;strokeColor=none;fillColor=none;align=left;verticalAlign=middle;spacingLeft=4;spacingRight=4;overflow=hidden;points=[[0,0.5],[1,0.5]];portConstraint=eastwest;rotatable=0;whiteSpace=wrap;html=1;spacing=0;fontFamily=Helvetica;" vertex="1" parent="t8jn_Qx6A78TWqLIUDg7-1">
          <mxGeometry y="50" width="110" height="20" as="geometry" />
        </mxCell>
        <mxCell id="t8jn_Qx6A78TWqLIUDg7-6" value="n - oferta" style="text;strokeColor=none;fillColor=none;align=left;verticalAlign=middle;spacingLeft=4;spacingRight=4;overflow=hidden;points=[[0,0.5],[1,0.5]];portConstraint=eastwest;rotatable=0;whiteSpace=wrap;html=1;spacing=0;fontFamily=Helvetica;" vertex="1" parent="t8jn_Qx6A78TWqLIUDg7-1">
          <mxGeometry y="70" width="110" height="20" as="geometry" />
        </mxCell>
        <mxCell id="t8jn_Qx6A78TWqLIUDg7-4" value="n - fecha_inicio" style="text;strokeColor=none;fillColor=none;align=left;verticalAlign=middle;spacingLeft=4;spacingRight=4;overflow=hidden;points=[[0,0.5],[1,0.5]];portConstraint=eastwest;rotatable=0;whiteSpace=wrap;html=1;spacing=0;fontFamily=Helvetica;" vertex="1" parent="t8jn_Qx6A78TWqLIUDg7-1">
          <mxGeometry y="90" width="110" height="20" as="geometry" />
        </mxCell>
        <mxCell id="t8jn_Qx6A78TWqLIUDg7-5" value="n - fecha_fin" style="text;strokeColor=none;fillColor=none;align=left;verticalAlign=middle;spacingLeft=4;spacingRight=4;overflow=hidden;points=[[0,0.5],[1,0.5]];portConstraint=eastwest;rotatable=0;whiteSpace=wrap;html=1;spacing=0;fontFamily=Helvetica;" vertex="1" parent="t8jn_Qx6A78TWqLIUDg7-1">
          <mxGeometry y="110" width="110" height="20" as="geometry" />
        </mxCell>
      </root>
    </mxGraphModel>
  </diagram>
</mxfile>
